# xmcd
#
# Track frame offsets: 
#        150
#        12692
#        23137
#        36820
#        47400
#        58775
#        70857
#        82077
#        95262
#        107345
#        118730
#        132465
#        145405
#        160262
#        171195
#        182965
#        192742
#        205240
#        215685
#        225670
#        240955
#        252505
#        265322
#        276907
#        287207
#
# Disc length: 4027 seconds
#
# Revision: 0
# Processed by: cddbd v1.5.1PL2 Copyright (c) Steve Scherf et al.
# Submitted via: ExactAudioCopy v0.95a5
#
DISCID=7f0fb919
DTITLE=Various Artist - Heart Of The Country, Vol.4
DYEAR=1997
DGENRE=Country
TTITLE0=Rich, Charlie - Behind Closed Doors
TTITLE1=Dudley, Dave - Six Days On The Road
TTITLE2=Dean, Jimmy - Big Bad John
TTITLE3=Fairchild, Barbara - Kid Stuff
TTITLE4=Gibson, Dan - Just One Time
TTITLE5=Greene, Jack - There Goes My Everything
TTITLE6=Stonewall Jackson - Waterloo
TTITLE7=Butler, Carl and Pearl - Don't Let Me Cross Over
TTITLE8=Jackson, Wanda - Right or Wrong
TTITLE9=Kilgore, Merle - Love Has Made You Beautiful
TTITLE10=Greenwood, Lee - Hearts Aren't Made To Break
TTITLE11=King, Claude - Wolverton Mountain
TTITLE12=Fargo, Donna - You Were Always There
TTITLE13=Locklin, Hank - Send Me The Pillow You Dream On
TTITLE14=Miller, Ned - Do What You Do Do Well
TTITLE15=Posey, Sandy - Born A Woman
TTITLE16=Helms Bobby - Frauline
TTITLE17=Husky, Ferlin - Gone
TTITLE18=Price, Ray - Make The World Go Away
TTITLE19=Rich, Charlie and Janie Fricke - On My Knees
TTITLE20=Wells, Kitty - Heartbreak USA
TTITLE21=Houston, David - My Elusive Dreams
TTITLE22=Smith, Sammi - Help Me Make It Trough The Night
TTITLE23=Mack, Warner - The Bridge Washed Out 
TTITLE24=Gatlin Brothers (The) - Amazing Grace
EXTD=
EXTT0=
EXTT1=
EXTT2=
EXTT3=
EXTT4=
EXTT5=
EXTT6=
EXTT7=
EXTT8=
EXTT9=
EXTT10=
EXTT11=
EXTT12=
EXTT13=
EXTT14=
EXTT15=
EXTT16=
EXTT17=
EXTT18=
EXTT19=
EXTT20=
EXTT21=
EXTT22=
EXTT23=
EXTT24=
PLAYORDER=
